<?xml version="1.0" encoding="UTF-8" standalone="no"?>
<!-- Created with Inkscape (http://www.inkscape.org/) -->

<svg
   width="63.051804mm"
   height="63.051788mm"
   viewBox="0 0 63.051804 63.051788"
   version="1.1"
   id="svg1"
   xml:space="preserve"
   inkscape:version="1.4 (86a8ad7, 2024-10-11)"
   sodipodi:docname="ecleaner.svg"
   xmlns:inkscape="http://www.inkscape.org/namespaces/inkscape"
   xmlns:sodipodi="http://sodipodi.sourceforge.net/DTD/sodipodi-0.dtd"
   xmlns="http://www.w3.org/2000/svg"
   xmlns:svg="http://www.w3.org/2000/svg"><sodipodi:namedview
     id="namedview1"
     pagecolor="#ffffff"
     bordercolor="#000000"
     borderopacity="0.25"
     inkscape:showpageshadow="2"
     inkscape:pageopacity="0.0"
     inkscape:pagecheckerboard="0"
     inkscape:deskcolor="#d1d1d1"
     inkscape:document-units="mm"
     inkscape:zoom="0.40913828"
     inkscape:cx="-360.51381"
     inkscape:cy="844.45777"
     inkscape:window-width="1920"
     inkscape:window-height="991"
     inkscape:window-x="-9"
     inkscape:window-y="-9"
     inkscape:window-maximized="1"
     inkscape:current-layer="layer1"><inkscape:page
       x="0"
       y="0"
       width="63.051804"
       height="63.051788"
       id="page2"
       margin="0"
       bleed="0" /></sodipodi:namedview><defs
     id="defs1" /><g
     inkscape:label="Camada 1"
     inkscape:groupmode="layer"
     id="layer1"
     transform="translate(-132.61147,-192.44892)"><g
       id="g1"><circle
         style="fill:#ffffff;fill-opacity:1;stroke:none;stroke-width:0.543664"
         id="path8-2"
         cx="-223.97482"
         cy="-164.13736"
         r="31.5259"
         transform="matrix(0,-1,-1,0,0,0)" /><path
         id="path2-8-4"
         style="font-variation-settings:'opsz' 144, 'wght' 400;fill:#14b5e1;fill-opacity:1;stroke:none;stroke-width:0.329314"
         d="m 153.16678,226.99592 c 0.35093,-1.54673 0.7841,-2.87713 1.29364,-4.02034 1.41451,-3.41074 4.32259,-5.59336 7.81538,-6.50909 6.85787,-1.69985 7.64368,5.5131 0.31389,8.36066 -2.50516,0.97323 -4.41746,1.73269 -9.42291,2.16877 z m -0.29914,4.33754 c 7.64754,-1.15826 15.78388,-2.71419 20.06891,-6.34694 6.42662,-5.44835 2.77192,-16.30635 -9.36109,-15.38626 -5.82592,0.44179 -11.94763,3.87478 -15.80232,9.76161 -4.65283,7.10575 -5.60251,16.7415 0.79848,22.40431 4.09163,3.61978 10.06102,4.32281 14.67052,3.52377 9.419,-1.63282 17.90062,-10.48565 15.72546,-18.06967 -4.82906,8.52756 -12.84881,11.59497 -18.70347,11.03208 -4.80676,-0.46215 -8.10535,-3.49324 -7.39649,-6.9189 z"
         sodipodi:nodetypes="cccsccssssscsc" /><path
         id="rect2-7-2-4-2-55-5"
         style="font-variation-settings:'opsz' 144, 'wght' 400;fill:#1f5f8c;fill-opacity:1;stroke:none;stroke-width:0.061063"
         d="m 171.04822,201.54734 c 0.13981,1.52924 0.92701,2.55551 2.80384,2.80371 -1.87683,0.2482 -2.66403,1.27447 -2.80384,2.8037 -0.1398,-1.52923 -0.927,-2.5555 -2.80383,-2.8037 1.87683,-0.2482 2.66403,-1.27448 2.80383,-2.80371 z"
         sodipodi:nodetypes="ccccc" /><path
         id="rect2-7-2-4-2-55-3-5"
         style="font-variation-settings:'opsz' 144, 'wght' 400;fill:#1f5f8c;fill-opacity:1;stroke:none;stroke-width:0.061063"
         d="m 181.33691,214.57968 c 0.1398,1.52924 0.927,2.55551 2.80383,2.80371 -1.87683,0.2482 -2.66403,1.27448 -2.80383,2.8037 -0.13981,-1.52923 -0.927,-2.5555 -2.80383,-2.8037 1.87683,-0.2482 2.66402,-1.27448 2.80383,-2.80371 z"
         sodipodi:nodetypes="ccccc" /><path
         id="rect2-7-2-4-2-55-6-1"
         style="font-variation-settings:'opsz' 144, 'wght' 400;fill:#1f5f8c;fill-opacity:1;stroke:none;stroke-width:0.103388"
         d="m 176.76416,205.31986 c 0.23671,2.58918 1.56953,4.32681 4.74725,4.74704 -3.17772,0.42024 -4.51054,2.15785 -4.74725,4.74703 -0.23671,-2.58918 -1.56953,-4.32679 -4.74725,-4.74703 3.17772,-0.42023 4.51054,-2.15786 4.74725,-4.74704 z"
         sodipodi:nodetypes="ccccc" /></g></g></svg>
