<?xml version="1.0" encoding="UTF-8" standalone="no"?>
<!-- Created with Inkscape (http://www.inkscape.org/) -->

<svg
   width="63.0518mm"
   height="63.051807mm"
   viewBox="0 0 63.0518 63.051807"
   version="1.1"
   id="svg1"
   xml:space="preserve"
   inkscape:version="1.4 (86a8ad7, 2024-10-11)"
   sodipodi:docname="ecleaner.svg"
   xmlns:inkscape="http://www.inkscape.org/namespaces/inkscape"
   xmlns:sodipodi="http://sodipodi.sourceforge.net/DTD/sodipodi-0.dtd"
   xmlns="http://www.w3.org/2000/svg"
   xmlns:svg="http://www.w3.org/2000/svg"><sodipodi:namedview
     id="namedview1"
     pagecolor="#ffffff"
     bordercolor="#000000"
     borderopacity="0.25"
     inkscape:showpageshadow="2"
     inkscape:pageopacity="0.0"
     inkscape:pagecheckerboard="0"
     inkscape:deskcolor="#d1d1d1"
     inkscape:document-units="mm"
     inkscape:zoom="0.37668301"
     inkscape:cx="213.70754"
     inkscape:cy="609.2656"
     inkscape:window-width="1920"
     inkscape:window-height="991"
     inkscape:window-x="-9"
     inkscape:window-y="-9"
     inkscape:window-maximized="1"
     inkscape:current-layer="layer1"><inkscape:page
       x="0"
       y="0"
       width="63.0518"
       height="63.051807"
       id="page2"
       margin="0"
       bleed="0" /></sodipodi:namedview><defs
     id="defs1" /><g
     inkscape:label="Camada 1"
     inkscape:groupmode="layer"
     id="layer1"
     transform="translate(-52.422592,-156.23461)"><g
       id="g10"><g
         id="g9"><circle
           style="fill:#1f5f8c;fill-opacity:1;stroke:none;stroke-width:0.543664"
           id="path8"
           cx="-187.7605"
           cy="-83.948494"
           r="31.5259"
           transform="matrix(0,-1,-1,0,0,0)" /><path
           id="path2-8"
           style="font-variation-settings:'opsz' 144, 'wght' 400;fill:#14b5e1;fill-opacity:1;stroke:none;stroke-width:0.329314"
           d="m 72.977919,190.7816 c 0.350929,-1.54673 0.784098,-2.87713 1.293642,-4.02034 1.414504,-3.41074 4.322589,-5.59336 7.815376,-6.50909 6.857869,-1.69985 7.643678,5.51309 0.313894,8.36066 -2.505165,0.97323 -4.417464,1.73269 -9.422912,2.16877 z m -0.29914,4.33754 c 7.647535,-1.15826 15.783883,-2.71419 20.068911,-6.34694 6.42662,-5.44835 2.77192,-16.30635 -9.361094,-15.38626 -5.825915,0.44179 -11.947627,3.87477 -15.80232,9.76161 -4.652828,7.10575 -5.602508,16.7415 0.798478,22.40431 4.091631,3.61978 10.061027,4.32281 14.670527,3.52376 9.418993,-1.63281 17.900619,-10.48565 15.725459,-18.06967 -4.829061,8.52757 -12.848813,11.59498 -18.703472,11.03208 -4.806757,-0.46215 -8.105349,-3.49324 -7.396489,-6.91889 z"
           sodipodi:nodetypes="cccsccssssscsc" /><path
           id="rect2-7-2-4-2-55"
           style="font-variation-settings:'opsz' 144, 'wght' 400;fill:#ffffff;fill-opacity:1;stroke:none;stroke-width:0.061063"
           d="m 90.859362,165.33302 c 0.139806,1.52923 0.927001,2.55551 2.803832,2.80371 -1.876831,0.2482 -2.664026,1.27447 -2.803832,2.8037 -0.139806,-1.52923 -0.927001,-2.5555 -2.803831,-2.8037 1.87683,-0.2482 2.664025,-1.27448 2.803831,-2.80371 z"
           sodipodi:nodetypes="ccccc" /><path
           id="rect2-7-2-4-2-55-3"
           style="font-variation-settings:'opsz' 144, 'wght' 400;fill:#ffffff;fill-opacity:1;stroke:none;stroke-width:0.061063"
           d="m 101.14805,178.36536 c 0.1398,1.52923 0.927,2.55551 2.80383,2.80371 -1.87683,0.2482 -2.66403,1.27447 -2.80383,2.8037 -0.13981,-1.52923 -0.927,-2.5555 -2.803834,-2.8037 1.876834,-0.2482 2.664024,-1.27448 2.803834,-2.80371 z"
           sodipodi:nodetypes="ccccc" /><path
           id="rect2-7-2-4-2-55-6"
           style="font-variation-settings:'opsz' 144, 'wght' 400;fill:#ffffff;fill-opacity:1;stroke:none;stroke-width:0.103388"
           d="m 96.575298,169.10554 c 0.23671,2.58918 1.569533,4.32681 4.747252,4.74704 -3.177719,0.42024 -4.510542,2.15785 -4.747252,4.74703 -0.236709,-2.58918 -1.569532,-4.32679 -4.747249,-4.74703 3.177717,-0.42023 4.51054,-2.15786 4.747249,-4.74704 z"
           sodipodi:nodetypes="ccccc" /></g></g></g></svg>
