<svg xmlns="http://www.w3.org/2000/svg" viewBox="0 0 24 24" fill="currentColor">
  <path d="M16 4c0-1.11.89-2 2-2s2 .89 2 2-.89 2-2 2-2-.89-2-2zm4 18v-6h2.5l-2.54-7.63A1.5 1.5 0 0 0 18.54 7H16c-.8 0-1.54.37-2.01.99l-2.76 3.64 2.14 2.14L16 11.5V22h4zM12.5 11.5c.83 0 1.5-.67 1.5-1.5s-.67-1.5-1.5-1.5S11 9.17 11 10s.67 1.5 1.5 1.5zM5.5 6c1.11 0 2-.89 2-2s-.89-2-2-2-2 .89-2 2 .89 2 2 2zm2.5 16v-6H10l-2.54-7.63A1.5 1.5 0 0 0 6.04 7H3.5c-.8 0-1.54.37-2.01.99L-.27 11.63 1.87 13.77 4.5 11.5V22H8z"/>
</svg>