<?xml version="1.0" encoding="UTF-8" standalone="no"?>
<!-- Created with Inkscape (http://www.inkscape.org/) -->

<svg
   width="258.09119mm"
   height="68.725128mm"
   viewBox="0 0 258.09119 68.725128"
   version="1.1"
   id="svg1"
   xml:space="preserve"
   inkscape:version="1.4 (86a8ad7, 2024-10-11)"
   sodipodi:docname="ecleaner.svg"
   xmlns:inkscape="http://www.inkscape.org/namespaces/inkscape"
   xmlns:sodipodi="http://sodipodi.sourceforge.net/DTD/sodipodi-0.dtd"
   xmlns="http://www.w3.org/2000/svg"
   xmlns:svg="http://www.w3.org/2000/svg"><sodipodi:namedview
     id="namedview1"
     pagecolor="#ffffff"
     bordercolor="#000000"
     borderopacity="0.25"
     inkscape:showpageshadow="2"
     inkscape:pageopacity="0.0"
     inkscape:pagecheckerboard="0"
     inkscape:deskcolor="#d1d1d1"
     inkscape:document-units="mm"
     inkscape:zoom="1.292543"
     inkscape:cx="603.84839"
     inkscape:cy="846.78036"
     inkscape:window-width="1920"
     inkscape:window-height="991"
     inkscape:window-x="-9"
     inkscape:window-y="-9"
     inkscape:window-maximized="1"
     inkscape:current-layer="layer1"><inkscape:page
       x="0"
       y="0"
       width="258.09119"
       height="68.725128"
       id="page2"
       margin="0"
       bleed="0" /></sodipodi:namedview><defs
     id="defs1" /><g
     inkscape:label="Camada 1"
     inkscape:groupmode="layer"
     id="layer1"
     transform="translate(-31.751959,-47.419626)"><g
       id="g5"
       transform="translate(28.486884,5.8782459)"><g
         id="g4"><path
           style="font-variation-settings:'opsz' 144, 'wght' 400;fill:#14b5e1;fill-opacity:1;stroke:none;stroke-width:0.295818"
           d="M 3.265177,107.40237 C 22.025831,99.851843 41.577513,92.488563 99.42691,94.191353 c 31.97421,0.23922 63.3783,3.42443 94.57257,8.312587 29.4478,4.61449 47.5289,2.04252 67.3567,-10.105687 -12.49913,12.669067 -35.63569,21.443637 -69.18836,16.439197 -34.75463,-5.18371 -37.78578,-7.83148 -91.98442,-11.031337 -37.902677,-2.23775 -71.639839,-0.42914 -96.918223,9.596257 z"
           id="path10"
           sodipodi:nodetypes="csscssc" /><g
           id="g2"
           transform="translate(-2.1532091)"><g
             id="g3"><path
               id="path2"
               style="font-variation-settings:'opsz' 144, 'wght' 400;fill:#14b5e1;fill-opacity:1;stroke:none;stroke-width:0.264583"
               d="m 12.761514,75.365333 c 0.28195,-1.242706 0.629973,-2.311593 1.039359,-3.230085 1.136464,-2.740323 3.472924,-4.493912 6.279156,-5.229638 5.50986,-1.365723 6.141208,4.429418 0.252194,6.717254 -2.01274,0.781933 -3.549151,1.392106 -7.570709,1.742469 z m -0.24034,3.48493 c 6.144307,-0.93058 12.681343,-2.18068 16.12409,-5.099359 5.163385,-4.377397 2.227064,-13.101102 -7.521042,-12.361878 -4.680751,0.354954 -9.599156,3.113132 -12.6961562,7.842836 -3.7382508,5.709015 -4.5012578,13.450721 0.6415268,18.000431 3.2873644,2.90826 8.0833934,3.4731 11.7868324,2.83111 7.567561,-1.31185 14.382009,-8.42455 12.63441,-14.51782 -3.879847,6.85135 -10.323209,9.31582 -15.027054,8.86357 -3.861922,-0.37131 -6.51213,-2.8066 -5.942607,-5.55889 z" /><path
               style="font-weight:600;font-size:48.8008px;font-family:Montserrat;-inkscape-font-specification:'Montserrat, Semi-Bold';text-align:end;text-anchor:end;fill:#195b89;fill-opacity:1;stroke:none;stroke-width:2.81543"
               d="M 248.6883,88.936333 V 62.422629 h 5.70784 v 7.298717 l -0.67151,-2.134999 c 0.76744,-1.787441 1.96657,-3.144572 3.59738,-4.071393 1.66279,-0.926821 3.72528,-1.390232 6.18748,-1.390232 v 5.908485 c -0.25581,-0.0662 -0.49564,-0.0993 -0.71947,-0.0993 -0.22384,-0.0331 -0.44768,-0.04965 -0.67151,-0.04965 -2.27035,0 -4.07703,0.695116 -5.42005,2.085348 -1.34303,1.357131 -2.01454,3.392827 -2.01454,6.107088 v 12.85964 z"
               id="path7"
               sodipodi:nodetypes="cccccccccscscc" /><path
               style="font-weight:600;font-size:48.8008px;font-family:Montserrat;-inkscape-font-specification:'Montserrat, Semi-Bold';text-align:end;text-anchor:end;fill:#195b89;fill-opacity:1;stroke:none;stroke-width:2.81543"
               d="m 206.84964,89.283893 q -4.26889,0 -7.48254,-1.73779 -3.16569,-1.78744 -4.9404,-4.86581 -1.72674,-3.07837 -1.72674,-7.00081 0,-3.972091 1.67878,-7.000811 1.72673,-3.07837 4.70056,-4.81616 3.0218,-1.73779 6.85901,-1.73779 3.74127,0 6.66713,1.688138 2.92587,1.68814 4.60465,4.76651 1.67877,3.07837 1.67877,7.249063 0,0.39721 -0.048,0.89372 0,0.49651 -0.048,0.94337 h -21.34443 v -4.12104 h 18.17874 l -2.35029,1.29093 q 0.048,-2.283953 -0.91133,-4.021742 -0.9593,-1.73779 -2.63808,-2.730813 -1.63081,-0.993022 -3.78923,-0.993022 -2.2064,0 -3.88518,0.993022 -1.6308,0.993023 -2.5901,2.780464 -0.91133,1.73779 -0.91133,4.121044 v 0.993027 q 0,2.38325 1.05522,4.22034 1.05523,1.83709 2.97383,2.83012 1.9186,0.99302 4.41279,0.99302 2.15842,0 3.88516,-0.69512 1.72674,-0.69511 3.06976,-2.18464 l 3.21367,3.82313 q -1.72675,2.08535 -4.36483,3.22732 -2.59011,1.09233 -5.94766,1.09233 z"
               id="path6" /><path
               style="font-weight:600;font-size:48.8008px;font-family:Montserrat;-inkscape-font-specification:'Montserrat, Semi-Bold';text-align:end;text-anchor:end;fill:#195b89;fill-opacity:1;stroke:none;stroke-width:2.81543"
               d="M 135.70436,88.936333 V 62.422629 h 5.70783 v 7.149763 l -1.00725,-2.184649 q 1.34301,-2.532209 3.88516,-3.872789 2.59011,-1.390232 5.94766,-1.390232 3.06976,0 5.46801,1.241278 2.44622,1.241279 3.83721,3.823138 1.39098,2.532208 1.39098,6.553949 v 15.193246 h -5.99562 V 74.537506 q 0,-3.525231 -1.63082,-5.263021 -1.58284,-1.737789 -4.46074,-1.737789 -2.11047,0 -3.74127,0.893721 -1.63081,0.89372 -2.54215,2.681161 -0.86337,1.737789 -0.86337,4.418955 v 13.4058 z"
               id="path5" /><path
               style="font-weight:600;font-size:48.8008px;font-family:Montserrat;-inkscape-font-specification:'Montserrat, Semi-Bold';text-align:end;text-anchor:end;fill:#195b89;fill-opacity:1;stroke:none;stroke-width:2.81543"
               d="M 164.20216,88.936333 V 62.422629 h 5.70783 v 7.149763 l -1.00725,-2.184649 q 1.34301,-2.532209 3.88516,-3.872789 2.59011,-1.390232 5.94766,-1.390232 3.06976,0 5.46801,1.241278 2.44622,1.241279 3.83721,3.823138 1.39098,2.532208 1.39098,6.553949 v 15.193246 h -5.99562 V 74.537506 q 0,-3.525231 -1.63082,-5.263021 -1.58284,-1.737789 -4.46074,-1.737789 -2.11047,0 -3.74127,0.893721 -1.63081,0.89372 -2.54215,2.681161 -0.86337,1.737789 -0.86337,4.418955 v 13.4058 z"
               id="path5-8" /><path
               style="font-weight:600;font-size:48.8008px;font-family:Montserrat;-inkscape-font-specification:'Montserrat, Semi-Bold';text-align:end;text-anchor:end;fill:#195b89;fill-opacity:1;stroke:none;stroke-width:2.81543"
               d="m 126.77628,88.936333 v -5.36232 l -0.33575,-1.14198 v -9.384061 q 0,-2.730813 -1.58285,-4.220347 -1.58285,-1.539185 -4.7965,-1.539185 -2.15842,0 -4.26889,0.695117 -2.06249,0.695115 -3.50144,1.936394 l -2.35029,-4.518254 q 2.0625,-1.638487 4.89243,-2.432905 2.8779,-0.84407 5.94766,-0.84407 5.56395,0 8.58575,2.780464 3.06976,2.730812 3.06976,8.490344 v 15.540803 z m -8.05812,0.34756 q -2.8779,0 -5.03633,-0.99303 -2.15842,-1.04266 -3.35755,-2.8301 -1.15116,-1.8371 -1.15116,-4.12105 0,-2.23431 1.00726,-4.02174 1.05524,-1.78744 3.40552,-2.830119 2.35029,-1.042673 6.23546,-1.042673 h 7.43457 v 4.121042 h -7.00289 q -3.06976,0 -4.12499,1.04268 -1.05523,0.99302 -1.05523,2.48256 0,1.68813 1.29505,2.68115 1.29506,0.99303 3.59738,0.99303 2.2064,0 3.93314,-1.04268 1.7747,-1.04267 2.54214,-3.07837 l 1.00726,3.72384 q -0.86336,2.3336 -3.11772,3.62453 -2.20639,1.29093 -5.61191,1.29093 z"
               id="path4" /><path
               style="font-weight:600;font-size:48.8008px;font-family:Montserrat;-inkscape-font-specification:'Montserrat, Semi-Bold';text-align:end;text-anchor:end;fill:#195b89;fill-opacity:1;stroke:none;stroke-width:2.81543"
               d="m 239.76022,88.936333 v -5.36232 l -0.33575,-1.14198 v -9.384061 q 0,-2.730813 -1.58285,-4.220347 -1.58285,-1.539185 -4.7965,-1.539185 -2.15842,0 -4.26889,0.695117 -2.06249,0.695115 -3.50144,1.936394 l -2.35029,-4.518254 q 2.0625,-1.638487 4.89243,-2.432905 2.8779,-0.84407 5.94766,-0.84407 5.56395,0 8.58575,2.780464 3.06976,2.730812 3.06976,8.490344 v 15.540803 z m -8.05812,0.34756 q -2.8779,0 -5.03633,-0.99303 -2.15842,-1.04266 -3.35755,-2.8301 -1.15116,-1.8371 -1.15116,-4.12105 0,-2.23431 1.00726,-4.02174 1.05524,-1.78744 3.40552,-2.830119 2.35029,-1.042673 6.23546,-1.042673 h 7.43457 v 4.121042 h -7.00289 q -3.06976,0 -4.12499,1.04268 -1.05523,0.99302 -1.05523,2.48256 0,1.68813 1.29505,2.68115 1.29506,0.99303 3.59738,0.99303 2.2064,0 3.93314,-1.04268 1.7747,-1.04267 2.54214,-3.07837 l 1.00726,3.72384 q -0.86336,2.3336 -3.11772,3.62453 -2.20639,1.29093 -5.61191,1.29093 z"
               id="path4-1" /><path
               style="font-weight:600;font-size:48.8008px;font-family:Montserrat;-inkscape-font-specification:'Montserrat, Semi-Bold';text-align:end;text-anchor:end;fill:#195b89;fill-opacity:1;stroke:none;stroke-width:2.81543"
               d="m 93.865699,89.283893 q -4.268887,0 -7.482545,-1.73779 -3.165691,-1.78744 -4.940397,-4.86581 -1.726741,-3.07837 -1.726741,-7.00081 0,-3.972091 1.678776,-7.000811 1.726741,-3.07837 4.700572,-4.81616 3.021797,-1.73779 6.858999,-1.73779 3.741272,0 6.667142,1.688138 2.925855,1.68814 4.604635,4.76651 1.67878,3.07837 1.67878,7.249063 0,0.39721 -0.048,0.89372 0,0.49651 -0.048,0.94337 H 84.464553 v -4.12104 h 18.178737 l -2.35028,1.29093 q 0.048,-2.283953 -0.911335,-4.021742 -0.9593,-1.73779 -2.638075,-2.730813 -1.63081,-0.993022 -3.789237,-0.993022 -2.206391,0 -3.885167,0.993022 -1.630811,0.993023 -2.590111,2.780464 -0.911336,1.73779 -0.911336,4.121044 v 0.993027 q 0,2.38325 1.055231,4.22034 1.055231,1.83709 2.973832,2.83012 1.918601,0.99302 4.412781,0.99302 2.158427,0 3.885168,-0.69512 1.726744,-0.69511 3.069759,-2.18464 l 3.21365,3.82313 q -1.72674,2.08535 -4.364805,3.22732 -2.590114,1.09233 -5.947666,1.09233 z"
               id="path3" /><path
               style="font-weight:600;font-size:48.8008px;font-family:Montserrat;-inkscape-font-specification:'Montserrat, Semi-Bold';text-align:end;text-anchor:end;fill:#195b89;fill-opacity:1;stroke:none;stroke-width:2.81543"
               d="m 70.452187,88.936333 v -36.84114 h 5.995629 v 36.84114 z"
               id="path1" /><path
               style="font-weight:600;font-size:48.8008px;font-family:Montserrat;-inkscape-font-specification:'Montserrat, Semi-Bold';text-align:end;text-anchor:end;fill:#1f5f8c;fill-opacity:1;stroke:none;stroke-width:2.81543"
               d="m 53.849709,89.432845 q -3.837202,0 -7.146789,-1.290929 -3.261621,-1.340579 -5.707838,-3.723835 -2.398251,-2.432906 -3.741272,-5.709878 -1.343021,-3.276976 -1.343021,-7.149765 0,-3.872788 1.343021,-7.149764 1.343021,-3.276975 3.789238,-5.660229 2.446215,-2.432906 5.707837,-3.723835 3.261622,-1.340581 7.146789,-1.340581 4.124993,0 7.53051,1.489534 3.405517,1.439883 5.755803,4.319649 l -4.029062,3.92244 q -1.822672,-2.035697 -4.077027,-3.02872 -2.254357,-1.042674 -4.892433,-1.042674 -2.638077,0 -4.844468,0.893721 -2.158426,0.89372 -3.789237,2.532208 -1.582847,1.638487 -2.494182,3.872789 -0.86337,2.234301 -0.86337,4.915462 0,2.681161 0.86337,4.915462 0.911335,2.234303 2.494182,3.872784 1.630811,1.638491 3.789237,2.532217 2.206391,0.893716 4.844468,0.893716 2.638076,0 4.892433,-0.993027 2.254355,-1.042667 4.077027,-3.128021 l 4.029062,3.972097 q -2.350286,2.830109 -5.755803,4.319649 -3.405517,1.48953 -7.578475,1.48953 z"
               id="text10" /><g
               id="g8"><path
                 id="rect2-7-2-4"
                 style="font-variation-settings:'opsz' 144, 'wght' 400;fill:#14b5e1;fill-opacity:1;stroke:none;stroke-width:0.171385"
                 d="m 33.193917,45.817195 c -0.392392,4.292073 -2.601806,7.172519 -7.869495,7.869142 5.267689,0.696623 7.477103,3.577069 7.869495,7.869142 0.392392,-4.292073 2.601806,-7.172519 7.869495,-7.869142 -5.267689,-0.696623 -7.477103,-3.577069 -7.869495,-7.869142 z"
                 sodipodi:nodetypes="ccccc" /><path
                 id="rect2-7-2-4-2"
                 style="font-variation-settings:'opsz' 144, 'wght' 400;fill:#14b5e1;fill-opacity:1;stroke:none;stroke-width:0.0770833"
                 d="m 41.413358,41.541382 c -0.176484,1.930431 -1.170205,3.22596 -3.539436,3.539278 2.369231,0.313317 3.362952,1.608846 3.539436,3.539277 0.176485,-1.930431 1.170206,-3.22596 3.539436,-3.539277 -2.36923,-0.313318 -3.362951,-1.608847 -3.539436,-3.539278 z"
                 sodipodi:nodetypes="ccccc" /><path
                 id="rect2-7-2-4-2-5"
                 style="font-variation-settings:'opsz' 144, 'wght' 400;fill:#ffffff;fill-opacity:1;stroke:none;stroke-width:0.0630084"
                 d="m 40.766158,58.109063 c -0.144259,1.577947 -0.956533,2.636921 -2.893158,2.89303 1.936625,0.256107 2.748899,1.315081 2.893158,2.893028 0.14426,-1.577947 0.956534,-2.636921 2.893159,-2.893028 -1.936625,-0.256109 -2.748899,-1.315083 -2.893159,-2.89303 z"
                 sodipodi:nodetypes="ccccc" /></g></g></g></g></g></g></svg>
